<svg width="97" height="20" viewBox="0 0 97 20" fill="none" xmlns="http://www.w3.org/2000/svg">
<path d="M27.952 16.16C27.2267 16.16 26.5653 16.0267 25.968 15.76C25.3813 15.4827 24.8853 15.0827 24.48 14.56L25.504 13.536C25.7493 13.9093 26.0853 14.208 26.512 14.432C26.9387 14.6453 27.4133 14.752 27.936 14.752C28.4267 14.752 28.848 14.6613 29.2 14.48C29.5627 14.288 29.8453 14.0213 30.048 13.68C30.2613 13.3387 30.368 12.944 30.368 12.496C30.368 12.0373 30.2613 11.6427 30.048 11.312C29.8453 10.9707 29.5573 10.7093 29.184 10.528C28.8107 10.3467 28.368 10.256 27.856 10.256C27.664 10.256 27.472 10.272 27.28 10.304C27.088 10.3253 26.9013 10.3627 26.72 10.416L27.36 9.552C27.5627 9.456 27.7813 9.38133 28.016 9.328C28.2507 9.27467 28.4853 9.248 28.72 9.248C29.3173 9.248 29.8507 9.38667 30.32 9.664C30.8 9.94133 31.1787 10.3307 31.456 10.832C31.744 11.3333 31.888 11.9147 31.888 12.576C31.888 13.28 31.7173 13.904 31.376 14.448C31.0453 14.9813 30.5867 15.4027 30 15.712C29.4133 16.0107 28.7307 16.16 27.952 16.16ZM26.72 10.416V9.504L29.968 5.808L31.76 5.792L28.416 9.584L26.72 10.416ZM25.008 6.24V4.896H31.76V5.792L30.448 6.24H25.008ZM40.2095 16.16C39.5055 16.16 38.8762 15.9893 38.3215 15.648C37.7668 15.296 37.3242 14.8213 36.9935 14.224C36.6735 13.6267 36.5135 12.9547 36.5135 12.208C36.5135 11.4613 36.6735 10.7893 36.9935 10.192C37.3242 9.59467 37.7668 9.12 38.3215 8.768C38.8762 8.416 39.5055 8.24 40.2095 8.24C40.7748 8.24 41.2868 8.36267 41.7455 8.608C42.2042 8.84267 42.5722 9.17333 42.8495 9.6C43.1375 10.016 43.2975 10.5013 43.3295 11.056V13.344C43.2975 13.888 43.1428 14.3733 42.8655 14.8C42.5882 15.2267 42.2202 15.5627 41.7615 15.808C41.3028 16.0427 40.7855 16.16 40.2095 16.16ZM40.4495 14.8C40.9295 14.8 41.3455 14.688 41.6975 14.464C42.0602 14.24 42.3428 13.936 42.5455 13.552C42.7482 13.1573 42.8495 12.7093 42.8495 12.208C42.8495 11.6853 42.7428 11.232 42.5295 10.848C42.3268 10.464 42.0442 10.16 41.6815 9.936C41.3295 9.712 40.9135 9.6 40.4335 9.6C39.9535 9.6 39.5322 9.712 39.1695 9.936C38.8068 10.16 38.5188 10.4693 38.3055 10.864C38.1028 11.248 38.0015 11.6907 38.0015 12.192C38.0015 12.704 38.1028 13.1573 38.3055 13.552C38.5188 13.936 38.8068 14.24 39.1695 14.464C39.5428 14.688 39.9695 14.8 40.4495 14.8ZM44.2095 16H42.7535V13.952L43.0255 12.096L42.7535 10.256V4.576H44.2095V16ZM49.538 16.16C48.8447 16.16 48.2153 15.9893 47.65 15.648C47.0847 15.296 46.6367 14.8213 46.306 14.224C45.986 13.6267 45.826 12.9547 45.826 12.208C45.826 11.4613 45.986 10.7893 46.306 10.192C46.6367 9.59467 47.0793 9.12 47.634 8.768C48.1993 8.416 48.834 8.24 49.538 8.24C50.114 8.24 50.626 8.36267 51.074 8.608C51.5327 8.84267 51.9007 9.17333 52.178 9.6C52.4553 10.016 52.61 10.5013 52.642 11.056V13.344C52.61 13.888 52.4553 14.3733 52.178 14.8C51.9113 15.2267 51.5487 15.5627 51.09 15.808C50.642 16.0427 50.1247 16.16 49.538 16.16ZM49.778 14.8C50.4927 14.8 51.0687 14.56 51.506 14.08C51.9433 13.5893 52.162 12.9653 52.162 12.208C52.162 11.6853 52.0607 11.232 51.858 10.848C51.666 10.4533 51.3887 10.1493 51.026 9.936C50.6633 9.712 50.242 9.6 49.762 9.6C49.282 9.6 48.8553 9.712 48.482 9.936C48.1193 10.16 47.8313 10.4693 47.618 10.864C47.4153 11.248 47.314 11.6907 47.314 12.192C47.314 12.704 47.4153 13.1573 47.618 13.552C47.8313 13.936 48.1247 14.24 48.498 14.464C48.8713 14.688 49.298 14.8 49.778 14.8ZM52.066 16V13.952L52.338 12.096L52.066 10.256V8.4H53.522V16H52.066ZM58.1145 16.064L54.8185 8.4H56.4185L58.8665 14.4H58.3545L60.9305 8.4H62.5305L58.9785 16.064H58.1145ZM55.9385 19.184L58.1785 14.592L58.9785 16.064L57.5385 19.184H55.9385ZM65.972 16.16C65.5453 16.16 65.14 16.1067 64.756 16C64.3827 15.8827 64.036 15.7227 63.716 15.52C63.396 15.3067 63.1187 15.056 62.884 14.768L63.812 13.84C64.0893 14.1813 64.4093 14.4373 64.772 14.608C65.1347 14.768 65.54 14.848 65.988 14.848C66.436 14.848 66.7827 14.7733 67.028 14.624C67.2733 14.464 67.396 14.2453 67.396 13.968C67.396 13.6907 67.2947 13.4773 67.092 13.328C66.9 13.168 66.6493 13.04 66.34 12.944C66.0307 12.8373 65.7 12.736 65.348 12.64C65.0067 12.5333 64.6813 12.4 64.372 12.24C64.0627 12.08 63.8067 11.8613 63.604 11.584C63.412 11.3067 63.316 10.9387 63.316 10.48C63.316 10.0213 63.428 9.62667 63.652 9.296C63.876 8.95467 64.1853 8.69333 64.58 8.512C64.9853 8.33067 65.4707 8.24 66.036 8.24C66.6333 8.24 67.1613 8.34667 67.62 8.56C68.0893 8.76267 68.4733 9.072 68.772 9.488L67.844 10.416C67.6307 10.1387 67.364 9.92533 67.044 9.776C66.7347 9.62667 66.3827 9.552 65.988 9.552C65.572 9.552 65.252 9.62667 65.028 9.776C64.8147 9.91467 64.708 10.112 64.708 10.368C64.708 10.624 64.804 10.8213 64.996 10.96C65.188 11.0987 65.4387 11.216 65.748 11.312C66.068 11.408 66.3987 11.5093 66.74 11.616C67.0813 11.712 67.4067 11.8453 67.716 12.016C68.0253 12.1867 68.276 12.416 68.468 12.704C68.6707 12.992 68.772 13.3707 68.772 13.84C68.772 14.5547 68.516 15.12 68.004 15.536C67.5027 15.952 66.8253 16.16 65.972 16.16ZM73.7122 16V4.576H75.1523V16H73.7122ZM80.7791 16.16C80.0218 16.16 79.3391 15.9893 78.7311 15.648C78.1231 15.296 77.6431 14.8213 77.2911 14.224C76.9391 13.6267 76.7631 12.9493 76.7631 12.192C76.7631 11.4453 76.9338 10.7733 77.2751 10.176C77.6271 9.57867 78.0965 9.10933 78.6831 8.768C79.2805 8.416 79.9471 8.24 80.6831 8.24C81.3871 8.24 82.0058 8.4 82.5391 8.72C83.0831 9.04 83.5045 9.48267 83.8031 10.048C84.1125 10.6133 84.2671 11.2533 84.2671 11.968C84.2671 12.0747 84.2618 12.192 84.2511 12.32C84.2405 12.4373 84.2191 12.576 84.1871 12.736H77.7711V11.536H83.4191L82.8911 12C82.8911 11.488 82.8005 11.056 82.6191 10.704C82.4378 10.3413 82.1818 10.064 81.8511 9.872C81.5205 9.66933 81.1205 9.568 80.6511 9.568C80.1605 9.568 79.7285 9.67467 79.3551 9.888C78.9818 10.1013 78.6938 10.4 78.4911 10.784C78.2885 11.168 78.1871 11.6213 78.1871 12.144C78.1871 12.6773 78.2938 13.1467 78.5071 13.552C78.7205 13.9467 79.0245 14.256 79.4191 14.48C79.8138 14.6933 80.2671 14.8 80.7791 14.8C81.2058 14.8 81.5951 14.7253 81.9471 14.576C82.3098 14.4267 82.6191 14.2027 82.8751 13.904L83.8031 14.848C83.4405 15.2747 82.9925 15.6 82.4591 15.824C81.9365 16.048 81.3765 16.16 80.7791 16.16ZM86.7065 16V7.264C86.7065 6.69867 86.8292 6.208 87.0745 5.792C87.3198 5.36533 87.6558 5.02933 88.0825 4.784C88.5198 4.53867 89.0265 4.416 89.6025 4.416C90.0398 4.416 90.4185 4.49067 90.7385 4.64C91.0585 4.78933 91.3518 5.008 91.6185 5.296L90.6745 6.224C90.5358 6.07467 90.3812 5.96267 90.2105 5.888C90.0398 5.80267 89.8318 5.76 89.5865 5.76C89.1278 5.76 88.7705 5.89333 88.5145 6.16C88.2692 6.42667 88.1465 6.79467 88.1465 7.264V16H86.7065ZM84.8345 9.712V8.4H90.5625V9.712H84.8345ZM92.724 16V5.216H94.164V16H92.724ZM90.852 9.712V8.4H96.036V9.712H90.852Z" fill="#8BACD9"/>
<rect opacity="0.01" x="16.305" y="18.6739" width="16" height="16" transform="rotate(180 16.305 18.6739)" fill="black"/>
<path fill-rule="evenodd" clip-rule="evenodd" d="M1.63834 10.6739C1.63834 6.99199 4.6231 4.00722 8.305 4.00722C10.0731 4.00722 11.7688 4.7096 13.019 5.95984C14.2693 7.21008 14.9717 8.90577 14.9717 10.6739C14.9717 14.3558 11.9869 17.3406 8.305 17.3406C4.6231 17.3406 1.63834 14.3558 1.63834 10.6739ZM8.305 11.3406H10.9717C11.3399 11.3406 11.6383 11.0421 11.6383 10.6739C11.6383 10.3057 11.3399 10.0072 10.9717 10.0072H8.97167V8.00722C8.97167 7.63903 8.67319 7.34055 8.305 7.34055C7.93681 7.34055 7.63834 7.63903 7.63834 8.00722V10.6739C7.63834 11.0421 7.93681 11.3406 8.305 11.3406Z" fill="#8BACD9"/>
</svg>
